<svg xmlns="http://www.w3.org/2000/svg" width="67.64" height="65.907" viewBox="0 0 67.64 65.907">
  <g id="analysis" transform="translate(0 -6.558)">
    <g id="Group_80" data-name="Group 80" transform="translate(0 6.558)">
      <path id="Path_75" data-name="Path 75" d="M125.7,89.667a3.307,3.307,0,1,0-2.639-1.319l-5.427,7.583a3.294,3.294,0,0,0-3.276.722L110.743,94.6a3.3,3.3,0,1,0-6.457,0l-3.617,2.052a3.3,3.3,0,1,0,.981,1.722l3.617-2.052a3.294,3.294,0,0,0,4.5,0l3.617,2.052a3.3,3.3,0,1,0,5.868-1.289l5.427-7.583A3.293,3.293,0,0,0,125.7,89.667Zm0-4.624a1.321,1.321,0,1,1-1.321,1.321A1.323,1.323,0,0,1,125.7,85.043ZM98.42,100.39a1.321,1.321,0,1,1,1.321-1.321A1.323,1.323,0,0,1,98.42,100.39Zm9.094-5.163a1.321,1.321,0,1,1,1.321-1.321A1.323,1.323,0,0,1,107.514,95.226Zm9.094,5.163a1.321,1.321,0,1,1,1.321-1.321A1.323,1.323,0,0,1,116.608,100.39Z" transform="translate(-82.552 -72.954)" fill="#022548"/>
      <path id="Path_76" data-name="Path 76" d="M55.327,84.617H2.8a.822.822,0,0,1-.821-.821V42.919A.822.822,0,0,1,2.8,42.1h8.541a.991.991,0,1,0,0-1.982H2.8a2.806,2.806,0,0,0-2.8,2.8V83.8a2.806,2.806,0,0,0,2.8,2.8H9.634v2.181a2.255,2.255,0,0,0,2.253,2.253h9.918l-4.669,9.115a.991.991,0,1,0,1.764.9l5.132-10.019H34.986l5.132,10.019a.991.991,0,1,0,1.764-.9l-4.669-9.115h9.918a2.255,2.255,0,0,0,2.253-2.253V86.6h5.943a.991.991,0,1,0,0-1.982ZM47.4,88.779a.272.272,0,0,1-.271.271H11.887a.272.272,0,0,1-.271-.271V86.6H47.4Z" transform="translate(0 -35.683)" fill="#022548"/>
      <path id="Path_77" data-name="Path 77" d="M80.062,12.973H124.84a.822.822,0,0,1,.821.821v9.421a.991.991,0,1,0,1.982,0V13.794a2.806,2.806,0,0,0-2.8-2.8H103.633V9.044a2.489,2.489,0,0,0-2.486-2.486H95.121a2.489,2.489,0,0,0-2.486,2.486v1.948H80.062a.991.991,0,0,0,0,1.982ZM94.617,9.044a.5.5,0,0,1,.5-.5h6.027a.5.5,0,0,1,.5.5v1.948H94.617V9.044Z" transform="translate(-68.625 -6.558)" fill="#022548"/>
      <path id="Path_78" data-name="Path 78" d="M98.393,267.576a.991.991,0,0,0-.991.991v8.755a.991.991,0,0,0,.991.991h4.02a.991.991,0,0,0,.991-.991v-8.755a.991.991,0,0,0-.991-.991Zm3.029,8.755H99.384v-6.773h2.038Z" transform="translate(-84.534 -233.093)" fill="#022548"/>
      <path id="Path_79" data-name="Path 79" d="M167.228,229.248a.991.991,0,0,0-.991.991v13.819a.991.991,0,0,0,.991.991h4.02a.991.991,0,0,0,.991-.991V230.239a.991.991,0,0,0-.991-.991Zm3.029,13.819h-2.038V231.23h2.038Z" transform="translate(-144.276 -199.829)" fill="#022548"/>
      <path id="Path_80" data-name="Path 80" d="M236.064,267.576a.991.991,0,0,0-.991.991v8.755a.991.991,0,0,0,.991.991h4.02a.991.991,0,0,0,.991-.991v-8.755a.991.991,0,0,0-.991-.991Zm3.029,8.755h-2.038v-6.773h2.038Z" transform="translate(-204.018 -233.093)" fill="#022548"/>
      <path id="Path_81" data-name="Path 81" d="M304.9,311.832a.991.991,0,0,0-.991.991v2.909a.991.991,0,0,0,.991.991h4.02a.991.991,0,1,0,0-1.982h-3.029v-1.918A.991.991,0,0,0,304.9,311.832Z" transform="translate(-263.76 -271.503)" fill="#022548"/>
      <path id="Path_82" data-name="Path 82" d="M323.625,176.12l-5.684-9.846a12.957,12.957,0,1,0-12.812,3.656,13.021,13.021,0,0,0,3.373.447,12.788,12.788,0,0,0,2.917-.337l5.683,9.846a3.766,3.766,0,1,0,6.524-3.766Zm-17.983-8.1a10.969,10.969,0,1,1,8.323-1.1A10.9,10.9,0,0,1,305.642,168.017Zm15.614,11.532a1.787,1.787,0,0,1-2.438-.653l-5.468-9.473a13,13,0,0,0,3.09-1.786l5.469,9.473a1.783,1.783,0,0,1-.653,2.438Z" transform="translate(-256.49 -126.254)" fill="#022548"/>
      <path id="Path_83" data-name="Path 83" d="M340.7,183.444a9.377,9.377,0,0,0-.469-6.793.991.991,0,1,0-1.793.844,7.421,7.421,0,1,1-2.237-2.765.991.991,0,1,0,1.2-1.58,9.409,9.409,0,1,0,3.3,10.293Z" transform="translate(-279.721 -149.485)" fill="#022548"/>
    </g>
  </g>
</svg>
