<svg xmlns="http://www.w3.org/2000/svg" width="59.933" height="62" viewBox="0 0 59.933 62">
  <g id="web" transform="translate(-8)">
    <g id="Group_37" data-name="Group 37" transform="translate(34.836 9.36)">
      <g id="Group_36" data-name="Group 36" transform="translate(0 0)">
        <rect id="Rectangle_16" data-name="Rectangle 16" width="28" height="2" transform="translate(0.164 -0.36)" fill="#022548"/>
      </g>
    </g>
    <g id="Group_39" data-name="Group 39" transform="translate(34.836 13.489)">
      <g id="Group_38" data-name="Group 38" transform="translate(0 0)">
        <rect id="Rectangle_17" data-name="Rectangle 17" width="17" height="3" transform="translate(0.164 -0.489)" fill="#022548"/>
      </g>
    </g>
    <g id="Group_41" data-name="Group 41" transform="translate(34.836 17.618)">
      <g id="Group_40" data-name="Group 40" transform="translate(0 0)">
        <rect id="Rectangle_18" data-name="Rectangle 18" width="17" height="2" transform="translate(0.164 0.382)" fill="#022548"/>
      </g>
    </g>
    <g id="Group_43" data-name="Group 43" transform="translate(43.093 5.232)">
      <g id="Group_42" data-name="Group 42" transform="translate(0 0)">
        <rect id="Rectangle_19" data-name="Rectangle 19" width="20" height="2" transform="translate(-0.093 -0.232)" fill="#022548"/>
      </g>
    </g>
    <g id="Group_45" data-name="Group 45" transform="translate(38.964 5.232)">
      <g id="Group_44" data-name="Group 44" transform="translate(0 0)">
        <rect id="Rectangle_20" data-name="Rectangle 20" width="2" height="2" transform="translate(0.036 -0.232)" fill="#022548"/>
      </g>
    </g>
    <g id="Group_47" data-name="Group 47" transform="translate(36.9 41.357)">
      <g id="Group_46" data-name="Group 46" transform="translate(0 0)">
        <rect id="Rectangle_21" data-name="Rectangle 21" width="2" height="2" transform="translate(0.1 -0.357)" fill="#022548"/>
      </g>
    </g>
    <g id="Group_49" data-name="Group 49" transform="translate(20.4 5.469)">
      <g id="Group_48" data-name="Group 48">
        <path id="Path_35" data-name="Path 35" d="M107.832,43.805l-1.461-1.461L104.3,44.411a1.033,1.033,0,0,0,0,1.461l2.067,2.067,1.461-1.461L106.5,45.141Z" transform="translate(-104.002 -42.344)" fill="#022548"/>
      </g>
    </g>
    <g id="Group_51" data-name="Group 51" transform="translate(28.969 5.469)">
      <g id="Group_50" data-name="Group 50">
        <path id="Path_36" data-name="Path 36" d="M173.872,44.411l-2.067-2.067-1.461,1.461,1.336,1.336-1.336,1.336,1.461,1.461,2.067-2.067A1.033,1.033,0,0,0,173.872,44.411Z" transform="translate(-170.344 -42.344)" fill="#022548"/>
      </g>
    </g>
    <g id="Group_53" data-name="Group 53" transform="translate(24.585 4.839)">
      <g id="Group_52" data-name="Group 52" transform="translate(0 0)">
        <rect id="Rectangle_22" data-name="Rectangle 22" width="6.536" height="2.066" transform="translate(0 6.2) rotate(-71.549)" fill="#022548"/>
      </g>
    </g>
    <g id="Group_55" data-name="Group 55" transform="translate(40.033 21.7)">
      <g id="Group_54" data-name="Group 54">
        <path id="Path_37" data-name="Path 37" d="M276.667,178.333v-8.267H274.6v8.267h-2.067V168h-2.067v10.333H268.4v-5.167h-2.067v5.167h-2.067v-6.2H262.2v6.2h-2.067V174.2h-2.067v4.133H256V180.4h22.733v-2.067Z" transform="translate(-256 -168)" fill="#022548"/>
      </g>
    </g>
    <g id="Group_57" data-name="Group 57" transform="translate(8)">
      <g id="Group_56" data-name="Group 56" transform="translate(0)">
        <path id="Path_38" data-name="Path 38" d="M61.733,0H14.2A6.206,6.206,0,0,0,8,6.2V41.333a6.206,6.206,0,0,0,6.2,6.2H26.995L22.861,55.8H17.3a3.1,3.1,0,1,0,0,6.2H58.633a3.1,3.1,0,1,0,0-6.2H53.072l-4.133-8.267H61.733a6.206,6.206,0,0,0,6.2-6.2V6.2A6.206,6.206,0,0,0,61.733,0ZM10.067,14.539l2.349,2.8a1.033,1.033,0,0,0,.792.369H16.37a1.033,1.033,0,0,0,.792-.369l2.35-2.8,2.319.753.256,3.64a1.033,1.033,0,0,0,.423.764l2.56,1.86a1.039,1.039,0,0,0,.858.166l3.547-.881,1.434,1.973-1.933,3.1a1.033,1.033,0,0,0-.1.867l.979,3.008a1.033,1.033,0,0,0,.594.639L33.833,31.8v2.439l-3.389,1.373a1.027,1.027,0,0,0-.594.64l-.31.948H23.587a9.729,9.729,0,0,0-13.52-12.688Zm0,12.431A7.676,7.676,0,0,1,21.227,37.2H10.067Zm48.567,30.9a1.033,1.033,0,1,1,0,2.067H17.3a1.033,1.033,0,0,1,0-2.067ZM50.761,55.8H25.172l4.133-8.267H46.628ZM65.867,41.333a4.133,4.133,0,0,1-4.133,4.133H14.2a4.133,4.133,0,0,1-4.133-4.133V39.267h55.8Zm0-4.133H32.03l3.225-1.307a1.033,1.033,0,0,0,.645-.957V31.1a1.033,1.033,0,0,0-.645-.958l-3.592-1.453-.68-2.093,2.048-3.286a1.033,1.033,0,0,0-.041-1.153l-2.253-3.1a1.033,1.033,0,0,0-1.085-.4L25.9,19.6l-1.775-1.29-.272-3.854a1.033,1.033,0,0,0-.712-.91l-3.643-1.184a1.042,1.042,0,0,0-1.111.319L15.9,15.636h-2.2L11.2,12.676a1.042,1.042,0,0,0-1.112-.319l-.025.009V6.2A4.133,4.133,0,0,1,14.2,2.067H61.733A4.133,4.133,0,0,1,65.867,6.2Z" transform="translate(-8)" fill="#022548"/>
      </g>
    </g>
  </g>
</svg>
