<svg xmlns="http://www.w3.org/2000/svg" width="65.311" height="65.311" viewBox="0 0 65.311 65.311">
  <g id="cms" transform="translate(0)">
    <path id="Path_89" data-name="Path 89" d="M100.955,168.819H57.414a4.082,4.082,0,0,1-4.082-4.082v-9.525h2.722v9.525a1.361,1.361,0,0,0,1.36,1.361h43.541a1.361,1.361,0,0,0,1.36-1.361V132.082a1.361,1.361,0,0,0-1.36-1.361H98.233V128h2.722a4.082,4.082,0,0,1,4.082,4.082v32.655A4.082,4.082,0,0,1,100.955,168.819Zm0,0" transform="translate(-46.529 -111.672)" fill="#fff"/>
    <path id="Path_90" data-name="Path 90" d="M160,490.668h24.492v2.721H160Zm0,0" transform="translate(-139.59 -428.078)" fill="#fff"/>
    <path id="Path_91" data-name="Path 91" d="M181.332,448h2.722v6.8h-2.722Zm0,0" transform="translate(-158.201 -390.853)" fill="#fff"/>
    <path id="Path_92" data-name="Path 92" d="M309.332,437.332h2.722V445.5h-2.722Zm0,0" transform="translate(-269.874 -381.546)" fill="#fff"/>
    <path id="Path_93" data-name="Path 93" d="M38.1,48.983a1.361,1.361,0,0,1-.962-.4l-7.765-7.765H4.082A4.082,4.082,0,0,1,0,36.737V4.082A4.082,4.082,0,0,1,4.082,0h42.18a4.082,4.082,0,0,1,4.082,4.082V6.8H47.622V4.082a1.361,1.361,0,0,0-1.36-1.361H4.082A1.361,1.361,0,0,0,2.721,4.082V36.737A1.361,1.361,0,0,0,4.082,38.1H29.934a1.36,1.36,0,0,1,.962.4l5.841,5.841v-4.88A1.361,1.361,0,0,1,38.1,38.1h8.164a1.361,1.361,0,0,0,1.36-1.361V25.852h2.722V36.737a4.082,4.082,0,0,1-4.082,4.082h-6.8v6.8a1.361,1.361,0,0,1-1.36,1.361Zm0,0" fill="#fff"/>
    <path id="Path_94" data-name="Path 94" d="M282.583,29.936a1.36,1.36,0,0,1-.962-.4l-3.888-3.888a1.361,1.361,0,0,1,0-1.924L301.058.4a1.361,1.361,0,0,1,1.924,0l3.888,3.888a1.361,1.361,0,0,1,0,1.924L283.544,29.538a1.36,1.36,0,0,1-.962.4Zm-1.964-5.248,1.964,1.964,21.4-21.4L302.02,3.287Zm0,0" transform="translate(-241.958 -0.002)" fill="#fff"/>
    <path id="Path_95" data-name="Path 95" d="M282.775,197.443h-4.082a1.361,1.361,0,0,1-1.361-1.361V192h2.722v2.721h2.721Zm0,0" transform="translate(-241.955 -167.508)" fill="#fff"/>
    <path id="Path_96" data-name="Path 96" d="M45.389,60.356H42.668V57.635a1.361,1.361,0,0,1,1.36-1.361h3.355a13.561,13.561,0,0,1,.914-2.2L45.925,51.7a1.361,1.361,0,0,1,0-1.924l3.848-3.848a1.361,1.361,0,0,1,1.924,0L54.071,48.3a13.563,13.563,0,0,1,2.2-.914V44.028a1.361,1.361,0,0,1,1.361-1.36h5.443a1.36,1.36,0,0,1,1.36,1.36v3.355a13.526,13.526,0,0,1,2.2.914l2.374-2.373a1.361,1.361,0,0,1,1.924,0l3.848,3.848a1.361,1.361,0,0,1,0,1.924l-2.373,2.374a13.606,13.606,0,0,1,.914,2.2h4.716V59H72.289a1.361,1.361,0,0,1-1.328-1.059,10.773,10.773,0,0,0-1.4-3.365,1.36,1.36,0,0,1,.189-1.688L71.9,50.735l-1.924-1.924-2.149,2.148a1.361,1.361,0,0,1-1.689.189,10.756,10.756,0,0,0-3.365-1.4,1.362,1.362,0,0,1-1.058-1.328V45.389H59v3.034a1.361,1.361,0,0,1-1.059,1.328,10.761,10.761,0,0,0-3.365,1.4,1.36,1.36,0,0,1-1.688-.189l-2.149-2.148-1.924,1.924,2.148,2.149a1.36,1.36,0,0,1,.189,1.688,10.761,10.761,0,0,0-1.4,3.365A1.361,1.361,0,0,1,48.423,59H45.389Zm0,0" transform="translate(-37.225 -37.225)" fill="#fff"/>
    <path id="Path_97" data-name="Path 97" d="M149.553,144.11h-2.721a2.721,2.721,0,0,0-5.443,0h-2.721a5.442,5.442,0,0,1,10.885,0Zm0,0" transform="translate(-120.98 -120.979)" fill="#fff"/>
    <path id="Path_98" data-name="Path 98" d="M85.332,213.332H107.1v2.722H85.332Zm0,0" transform="translate(-74.447 -186.119)" fill="#fff"/>
    <path id="Path_99" data-name="Path 99" d="M42.668,213.332h2.721v2.722H42.668Zm0,0" transform="translate(-37.225 -186.119)" fill="#fff"/>
    <path id="Path_100" data-name="Path 100" d="M64,362.668H88.492v2.721H64Zm0,0" transform="translate(-55.836 -316.406)" fill="#fff"/>
    <path id="Path_101" data-name="Path 101" d="M330.668,362.668h14.967v2.721H330.668Zm0,0" transform="translate(-288.488 -316.406)" fill="#fff"/>
  </g>
</svg>
