<svg xmlns="http://www.w3.org/2000/svg" width="50.698" height="62" viewBox="0 0 50.698 62">
  <g id="competitor" transform="translate(-46.668)">
    <g id="Group_61" data-name="Group 61" transform="translate(46.668 0)">
      <path id="Path_49" data-name="Path 49" d="M96.457,55.956a.908.908,0,0,0,.908-.908V8.162A2.849,2.849,0,0,0,94.52,5.316H92.227V2.846A2.849,2.849,0,0,0,89.381,0H64.069a.908.908,0,0,0,0,1.816H89.381A1.03,1.03,0,0,1,90.41,2.846V5.316H54.653a2.849,2.849,0,0,0-2.846,2.846V54.867H49.514a1.03,1.03,0,0,1-1.029-1.029V2.846a1.03,1.03,0,0,1,1.029-1.029H64.54A.908.908,0,0,0,64.54,0H49.514a2.849,2.849,0,0,0-2.846,2.846V53.838a2.849,2.849,0,0,0,2.846,2.846h2.294v2.471A2.849,2.849,0,0,0,54.653,62H94.52a2.849,2.849,0,0,0,2.846-2.846V54.96a.908.908,0,1,0-1.816,0v4.194a1.03,1.03,0,0,1-1.029,1.029H54.653a1.03,1.03,0,0,1-1.029-1.029V8.162a1.03,1.03,0,0,1,1.029-1.029H94.52a1.03,1.03,0,0,1,1.029,1.029V55.048a.908.908,0,0,0,.908.908Z" transform="translate(-46.668 0)" fill="#022548"/>
      <path id="Path_50" data-name="Path 50" d="M176.266,103.6a9.574,9.574,0,1,0-9.574,9.574A9.584,9.584,0,0,0,176.266,103.6Zm-10.482,0v7.7a7.758,7.758,0,1,1,8.613-8.613h-7.7A.908.908,0,0,0,165.785,103.6Zm1.816,7.7v-6.8h6.8A7.774,7.774,0,0,1,167.6,111.3Z" transform="translate(-143.744 -82.639)" fill="#022548"/>
      <path id="Path_51" data-name="Path 51" d="M354.554,121.607H346.4a.908.908,0,0,0,0,1.816h8.156a.908.908,0,1,0,0-1.816Z" transform="translate(-309.305 -106.881)" fill="#022548"/>
      <path id="Path_52" data-name="Path 52" d="M354.554,160.386H346.4a.908.908,0,0,0,0,1.816h8.156a.908.908,0,1,0,0-1.816Z" transform="translate(-309.305 -140.964)" fill="#022548"/>
      <path id="Path_53" data-name="Path 53" d="M354.554,199.166H346.4a.908.908,0,0,0,0,1.816h8.156a.908.908,0,1,0,0-1.816Z" transform="translate(-309.305 -175.048)" fill="#022548"/>
      <path id="Path_54" data-name="Path 54" d="M158.027,303.943a.908.908,0,0,0-.908.908v18.062a.908.908,0,0,0,.908.908h4.631a.908.908,0,0,0,.908-.908V304.851a.908.908,0,0,0-.908-.908ZM161.75,322h-2.814V305.759h2.814Z" transform="translate(-143.744 -267.137)" fill="#022548"/>
      <path id="Path_55" data-name="Path 55" d="M227.389,332.005a.908.908,0,0,0-.908.908v14.663a.908.908,0,0,0,.908.908h4.631a.908.908,0,0,0,.908-.908V332.913a.908.908,0,0,0-.908-.908Zm3.722,14.664H228.3V333.821h2.814Z" transform="translate(-204.707 -291.801)" fill="#022548"/>
      <path id="Path_56" data-name="Path 56" d="M296.751,379.933h4.63a.908.908,0,0,0,.908-.908V368.694a.908.908,0,0,0-.908-.908h-4.63a.908.908,0,0,0-.908.908v10.331A.908.908,0,0,0,296.751,379.933Zm.908-10.331h2.814v8.514h-2.814Z" transform="translate(-265.669 -323.249)" fill="#022548"/>
      <path id="Path_57" data-name="Path 57" d="M327.724,303.943H315.871a.908.908,0,0,0,0,1.816h11.852a.908.908,0,0,0,0-1.816Z" transform="translate(-282.474 -267.137)" fill="#022548"/>
      <path id="Path_58" data-name="Path 58" d="M386.761,342.722h-3.718a.908.908,0,1,0,0,1.816h3.718a.908.908,0,0,0,0-1.816Z" transform="translate(-341.511 -301.22)" fill="#022548"/>
      <path id="Path_59" data-name="Path 59" d="M386.761,381.5h-3.718a.908.908,0,1,0,0,1.816h3.718a.908.908,0,0,0,0-1.816Z" transform="translate(-341.511 -335.304)" fill="#022548"/>
      <path id="Path_60" data-name="Path 60" d="M386.761,420.281h-3.718a.908.908,0,1,0,0,1.816h3.718a.908.908,0,0,0,0-1.816Z" transform="translate(-341.511 -369.388)" fill="#022548"/>
    </g>
  </g>
</svg>
