<svg id="e-data" xmlns="http://www.w3.org/2000/svg" width="65.318" height="65.311" viewBox="0 0 65.318 65.311">
  <g id="Page-1" transform="translate(0 0)">
    <g id="_070---Email-List" data-name="070---Email-List">
      <path id="Shape" d="M22.621,6a7.621,7.621,0,1,0,7.621,7.621A7.621,7.621,0,0,0,22.621,6Zm-1.089,7.621a1.089,1.089,0,1,1,1.089,1.089A1.089,1.089,0,0,1,21.532,13.621Zm-1.044,5.008a2.177,2.177,0,0,1,4.265,0A5.415,5.415,0,0,1,20.488,18.628ZM26.6,17.311a4.355,4.355,0,0,0-1.387-1.723,3.269,3.269,0,1,0-5.184-.008A4.355,4.355,0,0,0,18.642,17.3a5.443,5.443,0,1,1,7.958,0Z" transform="translate(1.33 0.532)" fill="#022548"/>
      <path id="Shape-2" data-name="Shape" d="M22.621,22a7.621,7.621,0,1,0,7.621,7.621A7.621,7.621,0,0,0,22.621,22Zm-1.089,7.621a1.089,1.089,0,1,1,1.089,1.089A1.089,1.089,0,0,1,21.532,29.621Zm-1.044,5.008a2.177,2.177,0,0,1,4.265,0A5.415,5.415,0,0,1,20.488,34.628ZM26.6,33.311a4.355,4.355,0,0,0-1.387-1.723,3.269,3.269,0,1,0-5.184-.008A4.355,4.355,0,0,0,18.642,33.3a5.443,5.443,0,1,1,7.958,0Z" transform="translate(1.33 1.95)" fill="#022548"/>
      <path id="Shape-3" data-name="Shape" d="M22.621,38a7.621,7.621,0,1,0,7.621,7.621A7.621,7.621,0,0,0,22.621,38Zm-1.089,7.621a1.089,1.089,0,1,1,1.089,1.089A1.089,1.089,0,0,1,21.532,45.621Zm-1.044,5.008a2.177,2.177,0,0,1,4.265,0A5.415,5.415,0,0,1,20.488,50.628ZM26.6,49.311a4.355,4.355,0,0,0-1.387-1.723,3.269,3.269,0,1,0-5.184-.008A4.355,4.355,0,0,0,18.642,49.3a5.443,5.443,0,1,1,7.958,0Z" transform="translate(1.33 3.369)" fill="#022548"/>
      <path id="Shape-4" data-name="Shape" d="M33.089,9.177h3.266a1.089,1.089,0,1,0,0-2.177H33.089a1.089,1.089,0,1,0,0,2.177Z" transform="translate(2.837 0.621)" fill="#022548"/>
      <path id="Shape-5" data-name="Shape" d="M33.089,14.177H45.064a1.089,1.089,0,1,0,0-2.177H33.089a1.089,1.089,0,1,0,0,2.177Z" transform="translate(2.837 1.064)" fill="#022548"/>
      <path id="Shape-6" data-name="Shape" d="M33.089,18.177h6.532a1.089,1.089,0,1,0,0-2.177H33.089a1.089,1.089,0,1,0,0,2.177Z" transform="translate(2.837 1.418)" fill="#022548"/>
      <path id="Shape-7" data-name="Shape" d="M33.089,25.177h3.266a1.089,1.089,0,1,0,0-2.177H33.089a1.089,1.089,0,1,0,0,2.177Z" transform="translate(2.837 2.039)" fill="#022548"/>
      <path id="Shape-8" data-name="Shape" d="M33.089,30.177H45.064a1.089,1.089,0,1,0,0-2.177H33.089a1.089,1.089,0,1,0,0,2.177Z" transform="translate(2.837 2.482)" fill="#022548"/>
      <path id="Shape-9" data-name="Shape" d="M33.089,34.177h6.532a1.089,1.089,0,0,0,0-2.177H33.089a1.089,1.089,0,0,0,0,2.177Z" transform="translate(2.837 2.837)" fill="#022548"/>
      <path id="Shape-10" data-name="Shape" d="M54.432,37.409V5.443A5.45,5.45,0,0,0,48.989,0H5.443A5.45,5.45,0,0,0,0,5.443V44.635a2.177,2.177,0,0,0,2.177,2.177H8.709V58.787a2.177,2.177,0,0,0,2.177,2.177H40.978A14.14,14.14,0,1,0,54.432,37.409ZM2.177,44.635V5.443a3.266,3.266,0,0,1,6.532,0V44.635Zm8.709,14.152V5.443A5.414,5.414,0,0,0,9.8,2.177H48.989a3.266,3.266,0,0,1,3.266,3.266V37.07c-.36-.028-.721-.056-1.089-.056a14.12,14.12,0,0,0-11.131,5.443h-4.11a1.089,1.089,0,1,0,0,2.177h2.7A14.063,14.063,0,0,0,37.409,47.9H35.925a1.089,1.089,0,0,0,0,2.177H37.07c-.028.36-.056.721-.056,1.089s.027.728.056,1.089H35.925a1.089,1.089,0,1,0,0,2.177h1.484a14.092,14.092,0,0,0,1.851,4.355Zm40.28,4.355A11.975,11.975,0,1,1,63.142,51.167,11.975,11.975,0,0,1,51.167,63.142Z" transform="translate(0 0)" fill="#022548"/>
      <path id="Shape-11" data-name="Shape" d="M54.241,41H41.177A2.177,2.177,0,0,0,39,43.177v8.709a2.177,2.177,0,0,0,2.177,2.177H54.241a2.177,2.177,0,0,0,2.177-2.177V43.177A2.177,2.177,0,0,0,54.241,41ZM47.8,47.5a.142.142,0,0,1-.186-.008l-5.168-4.314H52.975Zm-3.354.184-3.266,2.728V44.956Zm1.7,1.415.064.054a2.317,2.317,0,0,0,1.5.556,2.286,2.286,0,0,0,1.489-.551l.074-.062,3.336,2.79h-9.8Zm4.833-1.415,3.266-2.727v5.456Z" transform="translate(3.457 3.635)" fill="#022548"/>
    </g>
  </g>
</svg>
