<svg id="e-online" xmlns="http://www.w3.org/2000/svg" width="62" height="62" viewBox="0 0 62 62">
  <g id="Group_59" data-name="Group 59">
    <path id="Path_39" data-name="Path 39" d="M5,32.9a5,5,0,0,1,0-9.8V17a3,3,0,0,1,5.946-.535A20.6,20.6,0,0,0,23.81,21H26a5.006,5.006,0,0,1,5,5v4a5,5,0,0,1-3,4.577l9,6.931V63H3V41.508L5.141,39.86A2.95,2.95,0,0,1,5,39ZM3,28a3,3,0,0,0,2,2.816V25.185A2.994,2.994,0,0,0,3,28ZM26.641,52,35,59.716V44.284Zm-4.032-1H17.391L6.558,61H33.442Zm-9.25,1L5,44.284V59.716Zm1.474-1.361L16.609,49h6.782l1.776,1.639,9.284-8.57-7.838-6.035L24.82,45H19V35.588a20.583,20.583,0,0,0-8.054,3.947A2.992,2.992,0,0,1,6.315,41.48l-.766.59ZM11,36.992a22.609,22.609,0,0,1,12-3.957V22.964a22.609,22.609,0,0,1-12-3.957Zm10-1.779V43h2.18l1.6-8h-.97A20.412,20.412,0,0,0,21,35.213ZM9,17a1,1,0,0,0-2,0V39a1,1,0,0,0,2,0ZM28.816,31H27V29h2V27H27V25h1.816A3,3,0,0,0,26,23H25V33h1a3,3,0,0,0,2.816-2Z" transform="translate(25 -1)" fill="#022548"/>
    <path id="Path_40" data-name="Path 40" d="M43,27H39v2h4Z" transform="translate(-19 -1)" fill="#022548"/>
    <path id="Path_41" data-name="Path 41" d="M0,2H6V0H0Z" transform="translate(25.349 22.759) rotate(-135)" fill="#022548"/>
    <path id="Path_42" data-name="Path 42" d="M0,6H2V0H0Z" transform="translate(22.523 36.9) rotate(-135)" fill="#022548"/>
    <path id="Path_43" data-name="Path 43" d="M52,41A11,11,0,1,1,41,52,11.013,11.013,0,0,1,52,41Zm0,20a9,9,0,1,0-9-9A9.011,9.011,0,0,0,52,61Z" transform="translate(-41 -1)" fill="#022548"/>
    <path id="Path_44" data-name="Path 44" d="M45,23H59V37H45Zm2,12H57V25H47Z" transform="translate(-41 -1)" fill="#022548"/>
    <path id="Path_45" data-name="Path 45" d="M55,27H49v2h6Z" transform="translate(-41 -1)" fill="#022548"/>
    <path id="Path_46" data-name="Path 46" d="M55,31H49v2h6Z" transform="translate(-41 -1)" fill="#022548"/>
    <path id="Path_47" data-name="Path 47" d="M52,19V17a5.006,5.006,0,0,0,5-5V8A5,5,0,0,0,47,8v7a1,1,0,0,0,2,0V8a3,3,0,0,1,6,0v4a3,3,0,0,1-3,3,2.966,2.966,0,0,1-1-.184V15a3,3,0,0,1-6,0V8A7,7,0,0,1,59,8v4A7.008,7.008,0,0,1,52,19Zm0-6a1,1,0,0,0,1-1V8a1,1,0,0,0-2,0v4A1,1,0,0,0,52,13Z" transform="translate(-41 -1)" fill="#022548"/>
    <path id="Path_48" data-name="Path 48" d="M48.447,49.658l4.764-2.382A2.619,2.619,0,0,1,57,49.618v4.764a2.619,2.619,0,0,1-3.789,2.342l-4.763-2.382a2.618,2.618,0,0,1,0-4.684Zm.9,2.9,4.764,2.382A.635.635,0,0,0,55,54.382V49.618a.618.618,0,0,0-.894-.553l-4.764,2.382a.618.618,0,0,0,0,1.106Z" transform="translate(-41 -1)" fill="#022548"/>
  </g>
</svg>
