<svg xmlns="http://www.w3.org/2000/svg" width="62" height="62" viewBox="0 0 62 62">
  <g id="seo" transform="translate(-1 -1)">
    <g id="Group_29" data-name="Group 29">
      <path id="Path_24" data-name="Path 24" d="M58.234,21H57V6a5.006,5.006,0,0,0-5-5H48a5.006,5.006,0,0,0-5,5V9H29V4a3,3,0,0,0-3-3H10A3,3,0,0,0,7,4V16a3,3,0,0,0,3,3h7v2H5.766A4.771,4.771,0,0,0,1,25.766a4.846,4.846,0,0,0,.037.591L4.6,54.826A4.772,4.772,0,0,0,9.324,59H14.7l5.362,3.575A2.536,2.536,0,0,0,24,60.464V59H54.676a4.773,4.773,0,0,0,4.729-4.174l3.559-28.468A5.1,5.1,0,0,0,63,25.766,4.771,4.771,0,0,0,58.234,21ZM45,6a3,3,0,0,1,3-3h4a3,3,0,0,1,3,3v5H45Zm0,7H55v2H45Zm6,18V17h4V31Zm3.382,2-3.829,7.658a.64.64,0,0,1-1.1,0L45.618,33ZM45,17h4V31H45ZM29,16V11H43V21H19V19h7A3,3,0,0,0,29,16ZM10,17a1,1,0,0,1-1-1V4a1,1,0,0,1,1-1H26a1,1,0,0,1,1,1V16a1,1,0,0,1-1,1Zm50.979,9.108L57.42,54.577A2.771,2.771,0,0,1,54.676,57H22v3.464a.555.555,0,0,1-.833.446L15.3,57H9.324A2.77,2.77,0,0,1,6.58,54.578L3.021,26.108A2.8,2.8,0,0,1,3,25.766,2.769,2.769,0,0,1,5.766,23H43v9.236L47.382,41H42v2h8a2.606,2.606,0,0,0,2.342-1.447L57,32.236V23h1.234A2.769,2.769,0,0,1,61,25.766a2.8,2.8,0,0,1-.021.342Z" fill="#022548"/>
      <path id="Path_25" data-name="Path 25" d="M35,34.1V28a3,3,0,0,0-5.946-.536A20.6,20.6,0,0,1,16.189,32H12a5.006,5.006,0,0,0-5,5v4a5.006,5.006,0,0,0,5,5h1.2l2,9H21V46.588a20.583,20.583,0,0,1,8.054,3.947A3,3,0,0,0,35,50V43.9a5,5,0,0,0,0-9.8ZM15,44H12a3,3,0,0,1-2.816-2H13V40H9V38h4V36H9.184A3,3,0,0,1,12,34h3Zm4,9H16.8l-1.555-7h.943A20.426,20.426,0,0,1,19,46.213V53Zm10-5.008a22.608,22.608,0,0,0-12-3.956V33.964a22.617,22.617,0,0,0,12-3.956ZM33,50a1,1,0,0,1-2,0V28a1,1,0,0,1,2,0Zm2-8.184V36.185a2.982,2.982,0,0,1,0,5.631Z" fill="#022548"/>
      <path id="Path_26" data-name="Path 26" d="M21.553,7.658,16.789,5.276A2.619,2.619,0,0,0,13,7.618v4.764a2.619,2.619,0,0,0,3.789,2.342l4.764-2.382a2.619,2.619,0,0,0,0-4.684Zm-.9,2.895-4.764,2.382a.637.637,0,0,1-.9-.553V7.618A.62.62,0,0,1,15.618,7a.612.612,0,0,1,.276.065l4.764,2.382a.618.618,0,0,1,0,1.106Z" fill="#022548"/>
      <path id="Path_27" data-name="Path 27" d="M42,45H56v2H42Z" fill="#022548"/>
      <path id="Path_28" data-name="Path 28" d="M42,49H56v2H42Z" fill="#022548"/>
      <path id="Path_29" data-name="Path 29" d="M50,53h2v2H50Z" fill="#022548"/>
      <path id="Path_30" data-name="Path 30" d="M54,53h2v2H54Z" fill="#022548"/>
      <path id="Path_31" data-name="Path 31" d="M42,53h2v2H42Z" fill="#022548"/>
      <path id="Path_32" data-name="Path 32" d="M46,53h2v2H46Z" fill="#022548"/>
    </g>
  </g>
</svg>
