<svg xmlns="http://www.w3.org/2000/svg" width="67.64" height="58.307" viewBox="0 0 67.64 58.307">
  <g id="social" transform="translate(0 -35.129)">
    <g id="Group_83" data-name="Group 83" transform="translate(0 35.129)">
      <circle id="Ellipse_5" data-name="Ellipse 5" cx="0.996" cy="0.996" r="0.996" transform="translate(33.326 40.011)" fill="#022548"/>
      <path id="Path_84" data-name="Path 84" d="M64.746,35.129H14.3a1,1,0,1,0,0,1.992H64.746a.9.9,0,0,1,.9.9V70.406H39.525a1,1,0,1,0,0,1.992H65.647v6.574a.9.9,0,0,1-.9.9H2.894a.9.9,0,0,1-.9-.9V72.4H35.54a1,1,0,1,0,0-1.992H1.992V38.023a.9.9,0,0,1,.9-.9H14.317a1,1,0,0,0,0-1.993H2.894A2.9,2.9,0,0,0,0,38.023v40.95a2.9,2.9,0,0,0,2.894,2.894H25.427L24.5,88.2H23.433a2.358,2.358,0,0,0-2.356,2.356v.524a2.358,2.358,0,0,0,2.356,2.356H44.206a2.358,2.358,0,0,0,2.356-2.356v-.524A2.358,2.358,0,0,0,44.206,88.2H43.138l-.925-6.335H64.746a2.9,2.9,0,0,0,2.894-2.894V38.023A2.9,2.9,0,0,0,64.746,35.129ZM44.569,90.557v.524a.364.364,0,0,1-.363.363H23.433a.363.363,0,0,1-.363-.363v-.524a.363.363,0,0,1,.363-.363H44.206A.363.363,0,0,1,44.569,90.557ZM41.124,88.2H26.516l.925-6.335H40.2Z" transform="translate(0 -35.129)" fill="#022548"/>
      <path id="Path_85" data-name="Path 85" d="M285.8,72.873a8.514,8.514,0,0,0-8.5-8.5H270.91a8.514,8.514,0,0,0-8.5,8.5V87.9a1.448,1.448,0,0,0,2.472,1.024,1.007,1.007,0,0,0,.1-.111l4.875-6.572h2.794a8.3,8.3,0,1,0,11.95-4.141,8.452,8.452,0,0,0,1.208-4.363v-.86Zm-16.453,7.372a1,1,0,0,0-.8.4L264.4,86.241V72.873a6.519,6.519,0,0,1,6.512-6.512H277.3a6.519,6.519,0,0,1,6.512,6.512v.86a6.519,6.519,0,0,1-6.512,6.512Zm10.08,2.968,3.49,2.015-3.49,2.015Zm7.257,2.033a6.306,6.306,0,1,1-11.846-3.009H277.3c.055,0,.109,0,.163,0a1.569,1.569,0,0,0-.024.26v5.469a1.578,1.578,0,0,0,2.366,1.366l4.736-2.735a1.582,1.582,0,0,0,.788-1.366c0-.013,0-.025,0-.038a1.581,1.581,0,0,0-.782-1.325l-.006,0-3.957-2.284a8.535,8.535,0,0,0,2.78-1.889,6.3,6.3,0,0,1,3.324,5.557Z" transform="translate(-227.55 -60.484)" fill="#022548"/>
      <path id="Path_86" data-name="Path 86" d="M323.563,111.429a3.345,3.345,0,0,0-4.329-4.871,3.345,3.345,0,0,0-4.261,4.964,12.891,12.891,0,0,0,3.872,2.835,1,1,0,0,0,.786,0,12.4,12.4,0,0,0,3.932-2.925Zm-1.626-1.152a11.23,11.23,0,0,1-2.706,2.057,11.652,11.652,0,0,1-2.674-2.019,1.34,1.34,0,0,1-.276-.819,1.351,1.351,0,0,1,2.273-.989,1,1,0,0,0,1.357,0,1.352,1.352,0,0,1,2.025,1.77Z" transform="translate(-272.541 -96.716)" fill="#022548"/>
      <path id="Path_87" data-name="Path 87" d="M61.215,59.488a7.709,7.709,0,0,0-6.772,4.036H51.294a8.908,8.908,0,0,0-8.9,8.9v.906a8.913,8.913,0,0,0,.987,4.072h-.514a1,1,0,0,0-1,1v7.028a1,1,0,0,0,1,1h4.722a2.69,2.69,0,0,0,2.275,1.259h5.317a2.694,2.694,0,0,0,2.691-2.691V82.225h1.372L64.4,87.378a1.472,1.472,0,0,0,2.512-1.041V72.422c0-.017,0-.034,0-.051a7.7,7.7,0,0,0-5.695-12.883Zm0,1.992a5.706,5.706,0,0,1,4.059,9.72.988.988,0,0,0-.128.124,5.708,5.708,0,1,1-3.932-9.844ZM43.865,79.392h3.309v5.036H43.865Zm12.016,5.6a.7.7,0,0,1-.7.7H49.866a.7.7,0,0,1-.7-.7V73.555h1.061a.541.541,0,0,1,.54.54v2.551a1.489,1.489,0,0,0,1.487,1.487h2.927a.7.7,0,0,1,.7.7v6.156Zm4.481-4.463a1,1,0,0,0-.7-.292H57.874v-1.4a2.694,2.694,0,0,0-2.691-2.691H52.761V74.1a2.536,2.536,0,0,0-2.533-2.533H48.705a1.533,1.533,0,0,0-1.531,1.531V77.4H45.718a6.914,6.914,0,0,1-1.33-4.072v-.906a6.913,6.913,0,0,1,6.905-6.905h2.4a7.7,7.7,0,0,0,11.22,8.425V85.08Z" transform="translate(-36.311 -56.252)" fill="#022548"/>
      <path id="Path_88" data-name="Path 88" d="M170.371,90.928v1.8a1,1,0,0,0,1.992,0v-1.8h.125a1,1,0,0,0,0-1.993h-.125V87.847a.722.722,0,0,1,.721-.721c.024,0,.047,0,.071,0a1,1,0,1,0,.194-1.983c-.087-.008-.176-.013-.264-.013a2.717,2.717,0,0,0-2.714,2.714v1.1a1,1,0,0,0,0,1.984Z" transform="translate(-146.951 -78.491)" fill="#022548"/>
    </g>
  </g>
</svg>
