<svg xmlns="http://www.w3.org/2000/svg" width="63.626" height="65.836" viewBox="0 0 63.626 65.836">
  <g id="web-health" transform="translate(-38 -34.111)">
    <g id="Group_75" data-name="Group 75" transform="translate(38 34.11)">
      <path id="Path_62" data-name="Path 62" d="M197.409,44.708A3.409,3.409,0,1,0,194,41.3,3.412,3.412,0,0,0,197.409,44.708Zm0-4.545a1.136,1.136,0,1,1-1.136,1.136A1.138,1.138,0,0,1,197.409,40.163Z" transform="translate(-149.689 -36.817)" fill="#022548"/>
      <path id="Path_63" data-name="Path 63" d="M115.335,50.136a1.215,1.215,0,1,0-1.215-1.215A1.215,1.215,0,0,0,115.335,50.136Z" transform="translate(-92.498 -43.845)" fill="#022548"/>
      <path id="Path_64" data-name="Path 64" d="M48.536,39.458a1.136,1.136,0,0,0,1.607,0l.9-.9.9.9a1.136,1.136,0,0,0,1.607-1.607l-.9-.9.9-.9a1.136,1.136,0,1,0-1.607-1.607l-.9.9-.9-.9a1.136,1.136,0,0,0-1.607,1.607l.9.9-.9.9a1.135,1.135,0,0,0,0,1.607Z" transform="translate(-45.305 -34.11)" fill="#022548"/>
      <path id="Path_65" data-name="Path 65" d="M95.227,73.891H44.4a6.406,6.406,0,0,0-6.4,6.4v33.785a6.406,6.406,0,0,0,6.4,6.4H62.626L61,126.155H49.362a1.136,1.136,0,1,0,0,2.272H91.4a1.136,1.136,0,0,0,0-2.272H79.759l-1.623-5.681h17.09a6.407,6.407,0,0,0,6.4-6.4V80.29a6.406,6.406,0,0,0-6.4-6.4ZM44.4,76.163H95.227a4.131,4.131,0,0,1,4.127,4.126v29.959H40.272V80.29A4.131,4.131,0,0,1,44.4,76.163Zm33,49.992H63.366l1.623-5.681H75.773ZM95.227,118.2H44.4a4.131,4.131,0,0,1-4.126-4.127v-1.554H99.354v1.554A4.132,4.132,0,0,1,95.227,118.2Z" transform="translate(-38 -62.592)" fill="#022548"/>
      <path id="Path_66" data-name="Path 66" d="M147.216,213.891a1.737,1.737,0,1,0,1.737,1.737A1.737,1.737,0,0,0,147.216,213.891Z" transform="translate(-114.95 -162.825)" fill="#022548"/>
      <path id="Path_67" data-name="Path 67" d="M61.646,112.983a1.137,1.137,0,0,0,1.2,0,19.155,19.155,0,0,0,4.206-3.543l2.341,2.341a1.136,1.136,0,0,0,1.9-.491l1.47-5.145.966,1.932a1.136,1.136,0,0,0,1.016.628h3.409a1.136,1.136,0,0,0,0-2.272H75.448l-1.958-3.917a1.136,1.136,0,0,0-2.109.2l-1.742,6.1-1.371-1.371a3.567,3.567,0,0,0,.229-1.206,4.207,4.207,0,0,0-4.154-4.249,4.053,4.053,0,0,0-2.1.581,4.053,4.053,0,0,0-2.1-.581A4.207,4.207,0,0,0,56,106.233c0,3.069,4.7,6.161,5.647,6.75Zm-1.494-8.727a1.829,1.829,0,0,1,1.293.544,1.135,1.135,0,0,0,1.6,0,1.828,1.828,0,0,1,1.293-.544,1.933,1.933,0,0,1,1.881,1.977,1.353,1.353,0,0,1-.041.2h-2.8a1.136,1.136,0,1,0,0,2.272h1.24a18.814,18.814,0,0,1-2.376,1.953c-1.784-1.234-3.977-3.23-3.977-4.426A1.933,1.933,0,0,1,60.153,104.256Z" transform="translate(-50.886 -82.636)" fill="#022548"/>
      <path id="Path_68" data-name="Path 68" d="M62.545,149.891H59.136a1.136,1.136,0,1,0,0,2.272h3.409a1.136,1.136,0,1,0,0-2.272Z" transform="translate(-52.319 -117.004)" fill="#022548"/>
      <path id="Path_69" data-name="Path 69" d="M96.77,149.891H83.136a1.136,1.136,0,1,0,0,2.272H96.77a1.136,1.136,0,1,0,0-2.272Z" transform="translate(-69.502 -117.004)" fill="#022548"/>
      <path id="Path_70" data-name="Path 70" d="M62.545,161.891H59.136a1.136,1.136,0,1,0,0,2.272h3.409a1.136,1.136,0,1,0,0-2.272Z" transform="translate(-52.319 -125.596)" fill="#022548"/>
      <path id="Path_71" data-name="Path 71" d="M96.77,161.891H83.136a1.136,1.136,0,1,0,0,2.272H96.77a1.136,1.136,0,1,0,0-2.272Z" transform="translate(-69.502 -125.596)" fill="#022548"/>
      <path id="Path_72" data-name="Path 72" d="M62.545,173.891H59.136a1.136,1.136,0,1,0,0,2.272h3.409a1.136,1.136,0,1,0,0-2.272Z" transform="translate(-52.319 -134.187)" fill="#022548"/>
      <path id="Path_73" data-name="Path 73" d="M96.77,173.891H83.136a1.136,1.136,0,1,0,0,2.272H96.77a1.136,1.136,0,1,0,0-2.272Z" transform="translate(-69.502 -134.187)" fill="#022548"/>
      <path id="Path_74" data-name="Path 74" d="M164.84,103.525h3.977v3.906l-3.677,8.459a2.845,2.845,0,0,0,1.272,3.811,2.881,2.881,0,0,0,3.841-1.339l1.973-4.689,2,4.757a2.84,2.84,0,0,0,5.107-2.486l-3.7-8.513v-3.906h3.977a2.84,2.84,0,1,0,0-5.681H175.2a4.545,4.545,0,1,0-5.948,0H164.84a2.84,2.84,0,0,0,0,5.681Zm7.385-11.362a2.272,2.272,0,1,1-2.272,2.272A2.275,2.275,0,0,1,172.226,92.163Zm-7.385,7.953h14.77a.568.568,0,0,1,0,1.136H174.5a1.136,1.136,0,0,0-1.136,1.136v5.278a1.137,1.137,0,0,0,.094.453l3.822,8.784a.572.572,0,0,1-.985.577l-3.02-7.177a1.137,1.137,0,0,0-2.1,0l-2.989,7.109a.551.551,0,0,1-.762.254.587.587,0,0,1-.229-.817l3.8-8.73a1.137,1.137,0,0,0,.094-.453v-5.278a1.136,1.136,0,0,0-1.136-1.136H164.84a.568.568,0,1,1,0-1.136Z" transform="translate(-126.778 -74.047)" fill="#022548"/>
    </g>
  </g>
</svg>
