<svg xmlns="http://www.w3.org/2000/svg" width="34.197" height="44.557" viewBox="0 0 34.197 44.557">
  <g id="customers-icon" transform="translate(-0.096 0.2)">
    <circle id="Ellipse_20" data-name="Ellipse 20" cx="11.24" cy="11.24" r="11.24" transform="translate(6.08 6.078)" fill="none" stroke="#000" stroke-miterlimit="10" stroke-width="2"/>
    <path id="Path_50" data-name="Path 50" d="M-713.337,430.342l-2.575,9.529c0,.339-.64.594-.948.278-2.213-2.313-3.022-2.629-6.615-1.657a.547.547,0,0,1-.537-.151.547.547,0,0,1-.126-.543l3.292-10.207" transform="translate(730.11 -396.95)" fill="none" stroke="#000" stroke-miterlimit="10" stroke-width="2"/>
    <path id="Path_51" data-name="Path 51" d="M-709,429.822l2.536,9.382c0,.339.64.6.948.278,2.213-2.274,3.022-2.629,6.615-1.65a.563.563,0,0,0,.53-.163.563.563,0,0,0,.133-.538l-3.454-10.7" transform="translate(726.636 -396.684)" fill="none" stroke="#000" stroke-miterlimit="10" stroke-width="2"/>
    <path id="Path_52" data-name="Path 52" d="M-698.9,403.722a3.253,3.253,0,0,1-.594-2.976c.378-1.542.162-2.058-1.249-2.852a3.176,3.176,0,0,1-1.6-2.382c-.308-1.7-.586-2.012-2.259-2.313a3.184,3.184,0,0,1-2.421-1.688,2.038,2.038,0,0,0-2.729-1.187,3.346,3.346,0,0,1-3.238-.655,1.981,1.981,0,0,0-2.737-.062,3.631,3.631,0,0,1-3.446.686,1.9,1.9,0,0,0-2.39.956,3.623,3.623,0,0,1-3.03,2.058,1.8,1.8,0,0,0-1.318.569,1.8,1.8,0,0,0-.486,1.351,3.361,3.361,0,0,1-1.812,2.76c-1.272.771-1.542,1.326-1.1,2.744a3.238,3.238,0,0,1-.594,2.991c-.917,1.233-.91,1.842.054,3.122a3.084,3.084,0,0,1,.563,2.806c-.409,1.542-.224,2.051,1.141,2.906a3.261,3.261,0,0,1,1.742,2.706,1.9,1.9,0,0,0,1.8,1.95,3.693,3.693,0,0,1,3.084,2.1,1.735,1.735,0,0,0,2.151.887,3.708,3.708,0,0,1,3.762.771,1.542,1.542,0,0,0,1.9.247c1.442-.971,2.86-1.827,4.263-.994a2.02,2.02,0,0,0,2.313-1.126,3.361,3.361,0,0,1,2.675-1.8c1.411-.2,1.843-.648,2.051-2.043a3.492,3.492,0,0,1,1.719-2.637c1.349-.825,1.542-1.3,1.18-2.806a3.392,3.392,0,0,1,.6-3.084C-697.962,405.533-697.955,404.94-698.9,403.722Z" transform="translate(731.58 -388.13)" fill="none" stroke="#000" stroke-miterlimit="10" stroke-width="2"/>
    <path id="Path_53" data-name="Path 53" d="M-710.752,400.872l1.92,3.855a.347.347,0,0,0,.254.193l4.294.624a.347.347,0,0,1,.275.234.347.347,0,0,1-.082.352l-3.084,3.022a.362.362,0,0,0-.1.308l.771,4.271a.339.339,0,0,1-.134.343.339.339,0,0,1-.368.019l-3.855-2.012a.347.347,0,0,0-.324,0l-3.855,2.012a.339.339,0,0,1-.368-.019.339.339,0,0,1-.134-.343l.771-4.271a.339.339,0,0,0-.1-.308l-3.084-3.022a.339.339,0,0,1-.092-.355.339.339,0,0,1,.284-.231l4.286-.624a.355.355,0,0,0,.262-.193l1.92-3.855a.347.347,0,0,1,.27-.129A.347.347,0,0,1-710.752,400.872Z" transform="translate(728.712 -390.8)" fill="#266678"/>
  </g>
</svg>
