<svg xmlns="http://www.w3.org/2000/svg" width="34.273" height="34.546" viewBox="0 0 34.273 34.546">
  <g id="deposit-icon" transform="translate(1 1.121)">
    <path id="Path_32" data-name="Path 32" d="M335.394,371.824l-14.73,13.888a.905.905,0,0,0,.622,1.561h30.207a.905.905,0,0,0,.6-1.575l-14.7-13.874A1.465,1.465,0,0,0,335.394,371.824Z" transform="translate(-320.153 -371.431)" fill="none" stroke="#000" stroke-miterlimit="10" stroke-width="2"/>
    <ellipse id="Ellipse_16" data-name="Ellipse 16" cx="3.448" cy="3.448" rx="3.448" ry="3.448" transform="translate(12.395 6.411)" fill="#266678"/>
    <line id="Line_1" data-name="Line 1" y2="10.329" transform="translate(4.899 15.856)" fill="none" stroke="#000" stroke-miterlimit="10" stroke-width="2"/>
    <line id="Line_2" data-name="Line 2" y2="10.329" transform="translate(8.961 15.856)" fill="none" stroke="#000" stroke-miterlimit="10" stroke-width="2"/>
    <line id="Line_3" data-name="Line 3" y2="10.329" transform="translate(14.136 15.856)" fill="none" stroke="#000" stroke-miterlimit="10" stroke-width="2"/>
    <line id="Line_4" data-name="Line 4" y2="10.329" transform="translate(18.157 15.856)" fill="none" stroke="#000" stroke-miterlimit="10" stroke-width="2"/>
    <line id="Line_5" data-name="Line 5" y2="10.329" transform="translate(23.332 15.856)" fill="none" stroke="#000" stroke-miterlimit="10" stroke-width="2"/>
    <line id="Line_6" data-name="Line 6" y2="10.329" transform="translate(27.354 15.856)" fill="none" stroke="#000" stroke-miterlimit="10" stroke-width="2"/>
    <path id="Path_33" data-name="Path 33" d="M4.366,38.6H31.741a.4.4,0,0,1,.4.4v1.9H4V39A.4.4,0,0,1,4.366,38.6Z" transform="translate(-1.955 -12.615)" fill="none" stroke="#000" stroke-miterlimit="10" stroke-width="2"/>
    <path id="Path_34" data-name="Path 34" d="M322.088,412.36H320.4a.345.345,0,0,0-.345.345v3.455a.352.352,0,0,0,.345.345h31.582a.345.345,0,0,0,.345-.345v-3.455a.345.345,0,0,0-.345-.345h-2.764" transform="translate(-320.05 -384.081)" fill="none" stroke="#000" stroke-miterlimit="10" stroke-width="2"/>
  </g>
</svg>
