<svg xmlns="http://www.w3.org/2000/svg" width="29.268" height="32.395" viewBox="0 0 29.268 32.395">
  <g id="notification-icon" transform="translate(1 1)">
    <path id="Path_11" data-name="Path 11" d="M477.571,18.77H455.726A2.734,2.734,0,0,0,453,21.5v19.34a2.73,2.73,0,0,0,2.726,2.726H460.1a.724.724,0,0,1,.724.724v4.143a.724.724,0,0,0,1.2.536l5.916-5.4h9.606a2.73,2.73,0,0,0,2.722-2.726V21.5a2.734,2.734,0,0,0-2.7-2.726Z" transform="translate(-453 -18.77)" fill="none" stroke="#000" stroke-miterlimit="10" stroke-width="2"/>
    <path id="Path_12" data-name="Path 12" d="M475.189,30.08a7.945,7.945,0,1,0,7.941,7.943,7.945,7.945,0,0,0-7.941-7.943Zm-.356,2.369h.716a.8.8,0,0,1,.8.853l-.368,5.151a.8.8,0,0,1-.8.74h0a.8.8,0,0,1-.8-.74l-.352-5.155a.8.8,0,0,1,.8-.849Zm.356,11.175a1.362,1.362,0,1,0,0-.012Z" transform="translate(-461.541 -25.553)" fill="#266678"/>
  </g>
</svg>
