<svg xmlns="http://www.w3.org/2000/svg" width="32.273" height="40.404" viewBox="0 0 32.273 40.404">
  <g id="support-icon" transform="translate(0 1)">
    <path id="Path_35" data-name="Path 35" d="M354.455,385.384c-.773-6.1-3.6-8.649-3.6-8.649a13.435,13.435,0,0,0-9.186-4.476,7.445,7.445,0,0,1-.789-.059h-.21a4.446,4.446,0,0,0-.789.059,13.436,13.436,0,0,0-9.195,4.476s-2.847,2.519-3.6,8.716" transform="translate(-324.635 -372.2)" fill="none" stroke="#266678" stroke-linecap="round" stroke-linejoin="round" stroke-width="2"/>
    <path id="Path_36" data-name="Path 36" d="M330.37,389.967c4.753-.764,6.407-8.12,6.793-8.4,0,0,4.14,4.35,14.939,6.575" transform="translate(-325.162 -373.702)" fill="none" stroke="#000" stroke-linecap="round" stroke-linejoin="round" stroke-width="2"/>
    <path id="Path_37" data-name="Path 37" d="M329.14,415.675c3.359-1.453,4.316-2.259,5.173-3.6.453-.705.319-6.273.319-6.273" transform="translate(-324.965 -377.585)" fill="none" stroke="#000" stroke-linecap="round" stroke-linejoin="round" stroke-width="2"/>
    <path id="Path_38" data-name="Path 38" d="M356.477,415.675c-3.359-1.453-4.316-2.259-5.173-3.6-.453-.705-.328-6.273-.328-6.273" transform="translate(-328.462 -377.585)" fill="none" stroke="#000" stroke-linecap="round" stroke-linejoin="round" stroke-width="2"/>
    <path id="Path_39" data-name="Path 39" d="M360.522,387.1c-1.495-1.352-4.106-.84-4.4-.773l.176.84-.319,8.784h0l-.109.84a10.9,10.9,0,0,0,1.411.1,4.089,4.089,0,0,0,2.729-.8c1.159-.974,1.243-2.519,1.335-4.325a17.039,17.039,0,0,1,.126-1.789A3.174,3.174,0,0,0,360.522,387.1Z" transform="translate(-329.249 -374.441)" fill="#266678"/>
    <path id="Path_40" data-name="Path 40" d="M329.745,395.935l-.336-8.926.16-.84c-.294-.05-2.939-.5-4.434.89a3.241,3.241,0,0,0-.915,2.889c.067.621.1,1.218.126,1.789.092,1.8.176,3.359,1.335,4.316a4.2,4.2,0,0,0,2.763.84,10.778,10.778,0,0,0,1.4-.1l-.1-.84Z" transform="translate(-324.168 -374.422)" fill="#266678"/>
    <path id="Path_41" data-name="Path 41" d="M352.409,388.028c-.185-6.264-3.04-8.826-3.04-8.826a10.833,10.833,0,0,0-7.4-3.611,5.9,5.9,0,0,0-.638-.042h-.168a5.825,5.825,0,0,0-.63.042,10.866,10.866,0,0,0-7.406,3.611s-2.847,2.561-3.04,8.826a19.028,19.028,0,0,0,3.132,10.816s3.25,5.038,7.314,5.441l.63.042h.168l.638-.042c4.064-.395,7.306-5.441,7.306-5.441A18.953,18.953,0,0,0,352.409,388.028Z" transform="translate(-325.116 -372.737)" fill="none" stroke="#000" stroke-linecap="round" stroke-linejoin="round" stroke-width="2"/>
    <path id="Path_42" data-name="Path 42" d="M356.931,397.93l-.966,3.46a2.049,2.049,0,0,1-1.528,1.453,33.113,33.113,0,0,1-4.921.328H346.46" transform="translate(-327.741 -376.324)" fill="none" stroke="#266678" stroke-linecap="round" stroke-linejoin="round" stroke-width="2"/>
    <ellipse id="Ellipse_17" data-name="Ellipse 17" cx="1.965" cy="1.411" rx="1.965" ry="1.411" transform="translate(14.588 25.284)" fill="none" stroke="#266678" stroke-linecap="round" stroke-linejoin="round" stroke-width="2"/>
  </g>
</svg>
