<svg xmlns="http://www.w3.org/2000/svg" width="37.81" height="24.266" viewBox="0 0 37.81 24.266">
  <g id="tax-icon" transform="translate(1 0.82)">
    <path id="Path_13" data-name="Path 13" d="M267.293,85.266A22.915,22.915,0,0,1,264,84.186V68.813s7.956,2.371,15.649.79c5.131-1.06,10.505-2.569,16.723.263v2.582" transform="translate(-264 -68.24)" fill="none" stroke="#000" stroke-linejoin="round" stroke-width="2"/>
    <path id="Path_14" data-name="Path 14" d="M269.22,90.259V74.893s7.956,2.371,15.649.784c5.131-1.054,10.505-2.562,16.723.27V92.762s-2.766-3.833-12.442-1.429A33.031,33.031,0,0,1,269.22,90.259Z" transform="translate(-265.782 -70.316)" fill="none" stroke="#000" stroke-linejoin="round" stroke-width="2"/>
    <path id="Path_15" data-name="Path 15" d="M290.99,79.53A6.013,6.013,0,1,0,297,85.537a6.013,6.013,0,0,0-6.007-6.007Zm.461,5.071v.659H289.91v.547h1.541v.659H289.91a2.271,2.271,0,0,0,.138.823,1.231,1.231,0,0,0,.408.54.962.962,0,0,0,.606.191,1.073,1.073,0,0,0,.468-.105,1.318,1.318,0,0,0,.4-.31,1.363,1.363,0,0,0,.263-.468h1.245a2.318,2.318,0,0,1-1.278,1.772,2.443,2.443,0,0,1-1.093.25,2.259,2.259,0,0,1-1.232-.336,2.16,2.16,0,0,1-.817-.942,3.2,3.2,0,0,1-.29-1.416h-.7v-.659h.7V85.26h-.7V84.6h.7v-.053a3.221,3.221,0,0,1,.29-1.416,2.167,2.167,0,0,1,2.048-1.278,2.338,2.338,0,0,1,1.1.263,2.279,2.279,0,0,1,.843.744,2.542,2.542,0,0,1,.428,1.113h-1.245a1.555,1.555,0,0,0-.263-.52,1.218,1.218,0,0,0-.4-.342,1.008,1.008,0,0,0-.468-.119.962.962,0,0,0-.606.191,1.252,1.252,0,0,0-.408.547,2.232,2.232,0,0,0-.138.817V84.6Z" transform="translate(-271.158 -72.094)" fill="#266678"/>
  </g>
</svg>
