<svg xmlns="http://www.w3.org/2000/svg" width="40.157" height="21.106" viewBox="0 0 40.157 21.106">
  <g id="transfer-icon" transform="translate(1 0.758)">
    <path id="Path_1" data-name="Path 1" d="M468.16,246.13" transform="translate(-456.712 -239.316)" fill="none" stroke="#000" stroke-miterlimit="10" stroke-width="2"/>
    <path id="Path_2" data-name="Path 2" d="M460.871,239.285h-6.438a.543.543,0,0,1-.543-.543v-3.175a.543.543,0,0,1,.543-.543h26.054a.543.543,0,0,0,.543-.543v-1.213a.543.543,0,0,1,.846-.445l5.464,4.187a.543.543,0,0,1-.024.915l-5,3.522a.543.543,0,0,1-.827-.46v-1.159a.543.543,0,0,0-.543-.543h-3.889" transform="translate(-449.423 -232.471)" fill="none" stroke="#000" stroke-miterlimit="10" stroke-width="2"/>
    <path id="Path_3" data-name="Path 3" d="M471.38,258.42" transform="translate(-458.357 -245.593)" fill="none" stroke="#000" stroke-miterlimit="10" stroke-width="2"/>
    <path id="Path_4" data-name="Path 4" d="M457.781,256.02h-5.924a.543.543,0,0,1-.543-.543v-1.213a.538.538,0,0,0-.846-.445l-5.459,4.187a.543.543,0,0,0,0,.915l4.99,3.522a.538.538,0,0,0,.822-.46v-1.159a.543.543,0,0,1,.543-.543H477.9a.543.543,0,0,0,.543-.543v-3.175a.543.543,0,0,0-.543-.543h-7.67" transform="translate(-444.758 -243.193)" fill="none" stroke="#000" stroke-miterlimit="10" stroke-width="2"/>
    <path id="Path_5" data-name="Path 5" d="M474.575,232.2a9.735,9.735,0,1,0,9.735,9.735A9.735,9.735,0,0,0,474.575,232.2Zm.744,8.218v1.125h-2.495v.876h2.495v1.13h-2.495a3.469,3.469,0,0,0,.23,1.326,1.957,1.957,0,0,0,.656.881,1.6,1.6,0,0,0,.978.313,1.649,1.649,0,0,0,.758-.181,2.089,2.089,0,0,0,.646-.489,2.333,2.333,0,0,0,.426-.753h2.02a3.883,3.883,0,0,1-.7,1.717,3.7,3.7,0,0,1-1.37,1.15,3.913,3.913,0,0,1-1.781.406,3.645,3.645,0,0,1-1.991-.538,3.585,3.585,0,0,1-1.326-1.526,5.307,5.307,0,0,1-.489-2.294h-1.135v-1.13h1.135v-.876h-1.135v-1.135h1.135v-.083a5.308,5.308,0,0,1,.489-2.294,3.512,3.512,0,0,1,3.317-2.074,3.845,3.845,0,0,1,1.786.426,3.762,3.762,0,0,1,1.365,1.208,4.133,4.133,0,0,1,.7,1.8h-2.02a2.8,2.8,0,0,0-.421-.837,2.045,2.045,0,0,0-.646-.558,1.58,1.58,0,0,0-.763-.2,1.6,1.6,0,0,0-.978.313,1.957,1.957,0,0,0-.656.885,3.469,3.469,0,0,0-.23,1.326v.083Z" transform="translate(-455.016 -232.2)" fill="#266678"/>
  </g>
</svg>
