<svg xmlns="http://www.w3.org/2000/svg" width="39.222" height="25.005" viewBox="0 0 39.222 25.005">
  <g id="visa" transform="translate(-0.295 -0.074)">
    <g id="acceptance-logos" transform="translate(0.295 0.074)">
      <g id="visa-2" data-name="visa" transform="translate(0 0)">
        <g id="g4145" transform="translate(0 0)">
          <path id="path4147" d="M39.517-19.921H.3v-25H39.517Z" transform="translate(-0.295 44.926)" fill="#fff"/>
          <path id="path4149" d="M1.455-7.518H39.2v3.4H1.455Z" transform="translate(-0.805 28.478)" fill="#f7b600"/>
          <path id="path4151" d="M1.455-40.159H39.2v-3.4H1.455Z" transform="translate(-0.805 44.323)" fill="#1a1f71"/>
          <g id="g4153" transform="translate(4.452 7.734)">
            <g id="g4155-Clipped" transform="translate(0)">
              <g id="g4155">
                <g id="g4161" transform="translate(0 0)">
                  <path id="path4163" d="M14.882-17.292,12.893-7.958H10.487l1.989-9.334ZM25-11.265l1.267-3.505L27-11.265Zm2.686,3.307h2.225l-1.944-9.334H25.919a1.1,1.1,0,0,0-1.025.684l-3.61,8.649h2.527l.5-1.394H27.4l.292,1.394Zm-6.281-3.047c.011-2.463-3.393-2.6-3.37-3.7.007-.335.325-.691,1.02-.782a4.528,4.528,0,0,1,2.373.418l.421-1.98a6.466,6.466,0,0,0-2.25-.413c-2.379,0-4.052,1.268-4.065,3.085-.015,1.344,1.2,2.093,2.105,2.54.938.457,1.253.751,1.248,1.16-.007.626-.748.9-1.439.914a5.015,5.015,0,0,1-2.471-.59l-.437,2.046a7.288,7.288,0,0,0,2.675.5c2.529,0,4.182-1.253,4.19-3.194Zm-9.965-6.286-3.9,9.334H5L3.084-15.407a1.024,1.024,0,0,0-.571-.82,10.043,10.043,0,0,0-2.374-.794L.2-17.292H4.29a1.123,1.123,0,0,1,1.11.951l1.013,5.4,2.5-6.353Z" transform="translate(-0.139 17.463)" fill="#1a1f71"/>
                </g>
              </g>
            </g>
          </g>
        </g>
      </g>
    </g>
  </g>
</svg>
