<svg xmlns="http://www.w3.org/2000/svg" width="21.364" height="24.925" viewBox="0 0 21.364 24.925">
  <path id="file-pdf" d="M22.989,7.489a3.236,3.236,0,0,1,.668,1.057,3.21,3.21,0,0,1,.278,1.224V25.793A1.33,1.33,0,0,1,22.6,27.129H3.906a1.33,1.33,0,0,1-1.335-1.335V3.539A1.33,1.33,0,0,1,3.906,2.2H16.369a3.211,3.211,0,0,1,1.224.278,3.236,3.236,0,0,1,1.057.668ZM16.814,4.1v5.23h5.23a1.52,1.52,0,0,0-.306-.57L17.384,4.4a1.519,1.519,0,0,0-.57-.306Zm5.341,21.253V11.105H16.369A1.33,1.33,0,0,1,15.033,9.77V3.984H4.351V25.348h17.8ZM15.005,17.1a10.583,10.583,0,0,0,1.168.779,13.8,13.8,0,0,1,1.627-.1q2.045,0,2.462.682a.672.672,0,0,1,.028.723.04.04,0,0,1-.014.028l-.028.028v.014q-.083.529-.988.529a5.738,5.738,0,0,1-1.6-.278,10.142,10.142,0,0,1-1.808-.737A25.045,25.045,0,0,0,10.4,19.924q-2.128,3.644-3.366,3.644a.809.809,0,0,1-.389-.1L6.312,23.3q-.014-.014-.083-.07a.575.575,0,0,1-.083-.5,3.021,3.021,0,0,1,.779-1.273A6.722,6.722,0,0,1,8.76,20.118a.2.2,0,0,1,.32.083.08.08,0,0,1,.028.056q.723-1.182,1.488-2.74a21.229,21.229,0,0,0,1.447-3.644,11.244,11.244,0,0,1-.424-2.219,5.408,5.408,0,0,1,.09-1.773q.153-.556.584-.556H12.6a.587.587,0,0,1,.487.209,1.111,1.111,0,0,1,.125.946.3.3,0,0,1-.056.111.362.362,0,0,1,.014.111v.417a18.214,18.214,0,0,1-.195,2.671,7.037,7.037,0,0,0,2.031,3.31ZM6.994,22.817a6.142,6.142,0,0,0,1.906-2.2,7.929,7.929,0,0,0-1.217,1.168A4.623,4.623,0,0,0,6.994,22.817Zm5.536-12.8a4.136,4.136,0,0,0-.028,1.836q.014-.1.1-.612,0-.042.1-.6a.313.313,0,0,1,.056-.111.04.04,0,0,1-.014-.028.028.028,0,0,0-.007-.021.028.028,0,0,1-.007-.021.8.8,0,0,0-.181-.5.04.04,0,0,1-.014.028v.028ZM10.8,19.214a20.4,20.4,0,0,1,3.95-1.127,2.1,2.1,0,0,1-.181-.132,2.491,2.491,0,0,1-.223-.188,7.368,7.368,0,0,1-1.766-2.448,18.587,18.587,0,0,1-1.154,2.74q-.417.779-.626,1.154Zm8.985-.223a3.329,3.329,0,0,0-1.947-.334,5.261,5.261,0,0,0,1.725.389,1.349,1.349,0,0,0,.25-.014q0-.014-.028-.042Z" transform="translate(-2.571 -2.203)" fill="#fff"/>
</svg>
