<svg xmlns="http://www.w3.org/2000/svg" width="151.261" height="29.122" viewBox="0 0 151.261 29.122">
  <g id="logo" transform="translate(-2134.976 -414.969)">
    <g id="Group_1" data-name="Group 1" transform="translate(2134.976 414.969)">
      <path id="Path_1" data-name="Path 1" d="M2140.9,415.235l25.057.026-.012,25.224h-5.168l.072-20.666L2140.9,419.8Z" transform="translate(-2136.05 -415.235)" fill="#022548"/>
      <path id="Path_2" data-name="Path 2" d="M2134.976,420.795h4.85v4.526H2155.5v16.165h4.2v3.88h-24.732Z" transform="translate(-2134.976 -416.243)" fill="#345983"/>
    </g>
    <path id="Path_3" data-name="Path 3" d="M2.888-25.254H6.646l8.805,13.542V-25.254h3.917V-4.674H15.6l-8.795-13.5v13.5H2.888Zm32,5.358H38.7V-4.674H34.883V-6.283a7.487,7.487,0,0,1-2.243,1.532,6.277,6.277,0,0,1-2.438.469A6.774,6.774,0,0,1,25.1-6.57a7.979,7.979,0,0,1-2.152-5.687,8.177,8.177,0,0,1,2.082-5.778,6.634,6.634,0,0,1,5.059-2.252,6.429,6.429,0,0,1,2.571.518,7.016,7.016,0,0,1,2.222,1.553Zm-4.015,3.134a3.859,3.859,0,0,0-2.942,1.252A4.512,4.512,0,0,0,26.755-12.3a4.56,4.56,0,0,0,1.192,3.246A3.863,3.863,0,0,0,30.882-7.78a3.935,3.935,0,0,0,2.984-1.252,4.577,4.577,0,0,0,1.185-3.281,4.445,4.445,0,0,0-1.185-3.218A3.984,3.984,0,0,0,30.869-16.762ZM41.193-19.9h4.435l3.009,4.148L51.63-19.9h4.36l-5.168,7.163,5.844,8.058H52.231L48.611-9.667l-3.6,4.993H40.647l5.777-8.007Zm17.879-5.61h3.819v5.61h2.266v3.288H62.892V-4.674H59.072V-16.608H57.114V-19.9h1.959ZM82.45-11.18H70.18A4.084,4.084,0,0,0,71.6-8.6a4.455,4.455,0,0,0,2.945.958,5.092,5.092,0,0,0,3.679-1.5l3.218,1.511A7.6,7.6,0,0,1,78.56-5.1a9.013,9.013,0,0,1-3.987.818,7.88,7.88,0,0,1-5.834-2.259A7.689,7.689,0,0,1,66.487-12.2a7.948,7.948,0,0,1,2.245-5.785,7.541,7.541,0,0,1,5.631-2.3,7.821,7.821,0,0,1,5.848,2.3,8.317,8.317,0,0,1,2.252,6.079ZM78.63-14.188a3.832,3.832,0,0,0-1.492-2.071,4.327,4.327,0,0,0-2.586-.8,4.572,4.572,0,0,0-2.8.9,4.989,4.989,0,0,0-1.4,1.973Zm21.811-2.63-3.179,1.749a5.392,5.392,0,0,0-1.772-1.3,5.322,5.322,0,0,0-2.052-.364,4.781,4.781,0,0,0-3.467,1.278,4.354,4.354,0,0,0-1.324,3.275,4.21,4.21,0,0,0,1.275,3.171A4.62,4.62,0,0,0,93.27-7.78a4.867,4.867,0,0,0,3.992-1.749l3.012,2.062a8.211,8.211,0,0,1-6.911,3.184,8.286,8.286,0,0,1-6.289-2.378A7.8,7.8,0,0,1,84.8-12.229,7.827,7.827,0,0,1,85.905-16.3a7.8,7.8,0,0,1,3.085-2.924,9.207,9.207,0,0,1,4.428-1.063,8.978,8.978,0,0,1,4.071.9A7.726,7.726,0,0,1,100.441-16.818Zm3.456-8.954h3.791v7.415A8.7,8.7,0,0,1,109.94-19.8a5.808,5.808,0,0,1,2.294-.483,5.168,5.168,0,0,1,3.819,1.567,5.474,5.474,0,0,1,1.329,3.987V-4.674H113.62v-6.673a16.472,16.472,0,0,0-.252-3.581,2.5,2.5,0,0,0-.86-1.4,2.416,2.416,0,0,0-1.5-.462,2.835,2.835,0,0,0-1.994.769,4.079,4.079,0,0,0-1.154,2.1,17.374,17.374,0,0,0-.168,3.134v6.114H103.9Z" transform="translate(2168.854 444.859)" fill="#022548"/>
  </g>
</svg>
