<svg xmlns="http://www.w3.org/2000/svg" width="194" height="37.351" viewBox="0 0 194 37.351">
  <g id="logo-white" transform="translate(-2134.976 -414.969)">
    <g id="Group_1" data-name="Group 1" transform="translate(2134.976 414.969)">
      <path id="Path_1" data-name="Path 1" d="M2140.9,415.235l32.137.033-.015,32.351h-6.628l.092-26.506-25.585-.021Z" transform="translate(-2134.68 -415.235)" fill="#fff"/>
      <path id="Path_2" data-name="Path 2" d="M2134.976,420.795h6.22v5.8h20.109v20.732h5.391v4.976h-31.72Z" transform="translate(-2134.976 -414.957)" fill="#fff"/>
    </g>
    <path id="Path_3" data-name="Path 3" d="M2.888-25.108H7.708L19-7.739V-25.108h5.024V1.287H19.192L7.912-16.028V1.287H2.888Zm41.036,6.872h4.9V1.287h-4.9V-.777a9.6,9.6,0,0,1-2.876,1.965,8.05,8.05,0,0,1-3.127.6,8.688,8.688,0,0,1-6.541-2.934,10.234,10.234,0,0,1-2.76-7.294,10.487,10.487,0,0,1,2.67-7.41,8.508,8.508,0,0,1,6.488-2.889,8.246,8.246,0,0,1,3.3.664,9,9,0,0,1,2.85,1.992Zm-5.149,4.019A4.949,4.949,0,0,0,35-12.61a5.787,5.787,0,0,0-1.5,4.118A5.848,5.848,0,0,0,35.028-4.33,4.954,4.954,0,0,0,38.792-2.7,5.046,5.046,0,0,0,42.619-4.3a5.87,5.87,0,0,0,1.52-4.208,5.7,5.7,0,0,0-1.52-4.127A5.11,5.11,0,0,0,38.774-14.216Zm13.242-4.019H57.7l3.859,5.321L65.4-18.235h5.592L64.366-9.049,71.861,1.287H66.173l-4.644-6.4-4.62,6.4H51.316l7.41-10.27Zm22.931-7.2h4.9v7.2h2.907v4.217H79.846V1.287h-4.9V-14.019H72.435v-4.217h2.512ZM104.93-7.057H89.194a5.239,5.239,0,0,0,1.821,3.31,5.714,5.714,0,0,0,3.777,1.229,6.531,6.531,0,0,0,4.719-1.92L103.638-2.5a9.741,9.741,0,0,1-3.7,3.239,11.559,11.559,0,0,1-5.114,1.05,10.107,10.107,0,0,1-7.482-2.9,9.862,9.862,0,0,1-2.889-7.258,10.194,10.194,0,0,1,2.88-7.419,9.672,9.672,0,0,1,7.222-2.952,10.031,10.031,0,0,1,7.5,2.952,10.667,10.667,0,0,1,2.889,7.8Zm-4.9-3.858a4.915,4.915,0,0,0-1.914-2.656A5.55,5.55,0,0,0,94.8-14.593a5.863,5.863,0,0,0-3.594,1.148,6.4,6.4,0,0,0-1.8,2.53ZM128-14.288l-4.078,2.243a6.916,6.916,0,0,0-2.273-1.669,6.826,6.826,0,0,0-2.632-.467,6.131,6.131,0,0,0-4.446,1.639,5.585,5.585,0,0,0-1.7,4.2,5.4,5.4,0,0,0,1.635,4.067A5.925,5.925,0,0,0,118.807-2.7a6.243,6.243,0,0,0,5.12-2.243L127.789-2.3a10.531,10.531,0,0,1-8.864,4.084,10.628,10.628,0,0,1-8.065-3.05A10,10,0,0,1,107.944-8.4a10.038,10.038,0,0,1,1.417-5.221,10,10,0,0,1,3.956-3.75A11.809,11.809,0,0,1,119-18.738a11.515,11.515,0,0,1,5.221,1.157A9.909,9.909,0,0,1,128-14.288Zm4.432-11.484H137.3v9.51a11.16,11.16,0,0,1,2.889-1.857,7.449,7.449,0,0,1,2.943-.619,6.628,6.628,0,0,1,4.9,2.01,7.021,7.021,0,0,1,1.7,5.114v12.9h-4.827V-7.272a21.125,21.125,0,0,0-.323-4.593,3.2,3.2,0,0,0-1.1-1.794,3.1,3.1,0,0,0-1.929-.592,3.636,3.636,0,0,0-2.557.987,5.231,5.231,0,0,0-1.48,2.691,22.283,22.283,0,0,0-.215,4.019V1.287h-4.863Z" transform="translate(2179.242 446.023)" fill="#fff"/>
  </g>
</svg>
