<svg xmlns="http://www.w3.org/2000/svg" width="25.886" height="25.886" viewBox="0 0 25.886 25.886">
  <g id="phone" transform="translate(0 -59.129)">
    <g id="phone-2" data-name="phone" transform="translate(0 59.129)">
      <path id="Path_5" data-name="Path 5" d="M18.629,25.886A18.629,18.629,0,0,1,0,7.257,7.253,7.253,0,0,1,7.257,0a.758.758,0,0,1,.7.477L11.21,8.6a.758.758,0,0,1-.422.986L7.218,11.013a8.189,8.189,0,0,0,7.654,7.654L16.3,15.1a.759.759,0,0,1,.986-.422l8.123,3.249a.758.758,0,0,1,.477.7,7.253,7.253,0,0,1-7.257,7.257ZM6.752,1.539A5.738,5.738,0,0,0,1.517,7.257,17.112,17.112,0,0,0,18.629,24.369a5.738,5.738,0,0,0,5.718-5.235l-6.92-2.768-1.343,3.357a.758.758,0,0,1-.7.477,9.7,9.7,0,0,1-9.694-9.693.759.759,0,0,1,.477-.7L9.52,8.459Z" transform="translate(0 0)" fill="#345983"/>
    </g>
  </g>
</svg>
